<?xml version="1.0" encoding="UTF-8"?>
<svg xmlns="http://www.w3.org/2000/svg" xmlns:xlink="http://www.w3.org/1999/xlink" width="150pt" height="150pt" viewBox="0 0 150 150" version="1.1">
<g id="surface1">
<path style=" stroke:none;fill-rule:nonzero;fill:rgb(0%,0%,0%);fill-opacity:1;" d="M 128.007812 21.984375 C 113.84375 7.820312 95.03125 0 74.996094 0 C 54.957031 0 36.144531 7.820312 21.980469 21.984375 C -5.34375 49.308594 -7.324219 92.964844 17.015625 122.550781 C 13.65625 129.429688 9.699219 134.015625 5.207031 136.210938 C 2.476562 137.5625 0.9375 140.515625 1.375 143.53125 C 1.847656 146.578125 4.171875 148.933594 7.21875 149.402344 C 8.882812 149.65625 10.671875 149.8125 12.527344 149.8125 C 21.726562 149.8125 31.402344 146.640625 39.472656 141.082031 C 50.339844 146.921875 62.558594 150 74.996094 150 C 95.03125 150 113.84375 142.210938 128.007812 128.046875 C 142.175781 113.882812 149.964844 95.039062 149.964844 75.03125 C 149.964844 55.023438 142.175781 36.148438 128.007812 21.984375 Z M 122.011719 122.015625 C 109.449219 134.578125 92.738281 141.488281 74.996094 141.488281 C 63.121094 141.488281 51.472656 138.316406 41.328125 132.347656 C 40.667969 131.972656 39.914062 131.753906 39.191406 131.753906 C 38.28125 131.753906 37.335938 132.066406 36.582031 132.632812 C 26.972656 140.074219 17.300781 141.175781 13.058594 141.269531 C 18.117188 137.5 22.355469 131.660156 25.90625 123.523438 C 26.566406 122.015625 26.28125 120.257812 25.183594 119 C 1.941406 92.746094 3.167969 52.730469 27.976562 27.921875 C 40.542969 15.359375 57.25 8.449219 74.996094 8.449219 C 92.738281 8.449219 109.449219 15.359375 122.011719 27.921875 C 147.953125 53.894531 147.953125 96.105469 122.011719 122.015625 Z M 122.011719 122.015625 "/>
<path style=" stroke:none;fill-rule:nonzero;fill:rgb(0%,0%,0%);fill-opacity:1;" d="M 106.402344 50.25 L 43.585938 50.25 C 41.230469 50.25 39.347656 52.136719 39.347656 54.492188 C 39.347656 56.847656 41.230469 58.730469 43.585938 58.730469 L 106.402344 58.730469 C 108.757812 58.730469 110.640625 56.847656 110.640625 54.492188 C 110.640625 52.136719 108.726562 50.25 106.402344 50.25 Z M 106.402344 50.25 "/>
<path style=" stroke:none;fill-rule:nonzero;fill:rgb(0%,0%,0%);fill-opacity:1;" d="M 106.402344 70.761719 L 43.585938 70.761719 C 41.230469 70.761719 39.347656 72.644531 39.347656 75 C 39.347656 77.355469 41.230469 79.238281 43.585938 79.238281 L 106.402344 79.238281 C 108.757812 79.238281 110.640625 77.355469 110.640625 75 C 110.640625 72.644531 108.726562 70.761719 106.402344 70.761719 Z M 106.402344 70.761719 "/>
<path style=" stroke:none;fill-rule:nonzero;fill:rgb(0%,0%,0%);fill-opacity:1;" d="M 106.402344 91.269531 L 43.585938 91.269531 C 41.230469 91.269531 39.347656 93.152344 39.347656 95.507812 C 39.347656 97.863281 41.230469 99.75 43.585938 99.75 L 106.402344 99.75 C 108.757812 99.75 110.640625 97.863281 110.640625 95.507812 C 110.640625 93.152344 108.726562 91.269531 106.402344 91.269531 Z M 106.402344 91.269531 "/>
</g>
</svg>
